<?xml version="1.0" standalone="no"?>
<!DOCTYPE svg PUBLIC "-//W3C//DTD SVG 20010904//EN"
 "http://www.w3.org/TR/2001/REC-SVG-20010904/DTD/svg10.dtd">
<svg version="1.0" xmlns="http://www.w3.org/2000/svg"
 width="700.000000pt" height="700.000000pt" viewBox="0 0 700.000000 700.000000"
 preserveAspectRatio="xMidYMid meet">
<metadata>
Created by potrace 1.11, written by Peter Selinger 2001-2013
</metadata>
<g transform="translate(0.000000,700.000000) scale(0.100000,-0.100000)"
fill="#000000" stroke="none">
<path d="M585 3743 l1 -2378 23 -65 c36 -103 79 -169 160 -250 82 -81 178
-136 281 -161 45 -11 497 -13 2440 -13 1312 0 2403 3 2425 7 210 32 412 212
481 427 16 52 17 198 19 2432 1 2355 1 2378 -18 2360 -11 -9 -120 -118 -244
-241 l-224 -224 -239 241 c-132 133 -242 242 -245 242 -3 0 -113 -108 -246
-241 l-241 -241 -239 238 c-131 131 -242 240 -246 241 -5 2 -116 -105 -247
-238 l-239 -240 -244 243 -243 243 -243 -243 -244 -244 -241 244 -242 243
-244 -244 -244 -243 -224 223 c-123 123 -234 232 -245 242 -22 19 -23 18 -262
-224 l-241 -242 -241 241 c-133 133 -242 242 -243 242 -2 0 -2 -1070 -1 -2377z
m5250 502 c0 -231 -2 -428 -4 -438 -3 -16 -120 -17 -2334 -15 l-2331 3 0 410
c-1 226 1 422 2 436 l4 25 2331 0 2331 -1 1 -420z m-2625 -1910 l0 -875 -117
0 c-115 -1 -668 -1 -1508 0 l-420 0 2 862 c1 475 2 869 2 876 1 9 212 12 1021
12 l1020 0 0 -875z m2621 853 c3 -57 4 -544 2 -553 -2 -7 -348 -10 -1021 -10
l-1017 0 -3 293 -2 292 1020 0 1020 0 1 -22z m-1 -1148 c3 0 5 -130 5 -290 l0
-290 -135 0 c-158 -1 -1744 -1 -1842 0 l-68 0 0 289 0 290 53 3 c39 2 1963 1
1987 -2z"/>
</g>
</svg>
